<svg width="300" height="320" viewBox="0 0 300 320" fill="none" xmlns="http://www.w3.org/2000/svg">
<g clip-path="url(#clip0_101_11)">
<path d="M158.5 20.25C157.121 20.25 156 21.3711 156 22.75V35.25C156 36.6289 157.121 37.75 158.5 37.75H173.5C174.879 37.75 176 36.6289 176 35.25V22.75C176 21.3711 174.879 20.25 173.5 20.25H158.5ZM162.836 25.8359C163.203 25.4688 163.797 25.4688 164.16 25.8359L165.996 27.6719L167.832 25.8359C168.199 25.4688 168.793 25.4688 169.156 25.8359C169.52 26.2031 169.523 26.7969 169.156 27.1602L167.32 28.9961L169.156 30.832C169.523 31.1992 169.523 31.793 169.156 32.1562C168.789 32.5195 168.195 32.5234 167.832 32.1562L165.996 30.3203L164.16 32.1562C163.793 32.5234 163.199 32.5234 162.836 32.1562C162.473 31.7891 162.469 31.1953 162.836 30.832L164.672 28.9961L162.836 27.1602C162.469 26.793 162.469 26.1992 162.836 25.8359V25.8359Z" fill="#F7DF1E"/>
<path d="M249 179C246.794 179 245 180.794 245 183V203C245 205.206 246.794 207 249 207H273C275.206 207 277 205.206 277 203V183C277 180.794 275.206 179 273 179H249ZM255.938 187.938C256.525 187.35 257.475 187.35 258.056 187.938L260.994 190.875L263.931 187.938C264.519 187.35 265.469 187.35 266.05 187.938C266.631 188.525 266.637 189.475 266.05 190.056L263.112 192.994L266.05 195.931C266.637 196.519 266.637 197.469 266.05 198.05C265.462 198.631 264.512 198.637 263.931 198.05L260.994 195.112L258.056 198.05C257.469 198.637 256.519 198.637 255.938 198.05C255.356 197.462 255.35 196.512 255.938 195.931L258.875 192.994L255.938 190.056C255.35 189.469 255.35 188.519 255.938 187.938V187.938Z" fill="#FF0000"/>
<path d="M31 31.5C28.2422 31.5 26 33.7422 26 36.5V61.5C26 64.2578 28.2422 66.5 31 66.5H61C63.7578 66.5 66 64.2578 66 61.5V36.5C66 33.7422 63.7578 31.5 61 31.5H31ZM39.6719 42.6719C40.4062 41.9375 41.5937 41.9375 42.3203 42.6719L45.9922 46.3438L49.6641 42.6719C50.3984 41.9375 51.5859 41.9375 52.3125 42.6719C53.0391 43.4062 53.0469 44.5937 52.3125 45.3203L48.6406 48.9922L52.3125 52.6641C53.0469 53.3984 53.0469 54.5859 52.3125 55.3125C51.5781 56.0391 50.3906 56.0469 49.6641 55.3125L45.9922 51.6406L42.3203 55.3125C41.5859 56.0469 40.3984 56.0469 39.6719 55.3125C38.9453 54.5781 38.9375 53.3906 39.6719 52.6641L43.3438 48.9922L39.6719 45.3203C38.9375 44.5859 38.9375 43.3984 39.6719 42.6719V42.6719Z" fill="#37B7FF"/>
<g clip-path="url(#clip1_101_11)">
<path d="M115 79C120.523 79 125 74.5234 125 69C125 63.4766 120.523 59 115 59C109.477 59 105 63.4766 105 69C105 74.5234 109.477 79 115 79ZM111.836 65.8359C112.203 65.4688 112.797 65.4688 113.16 65.8359L114.996 67.6719L116.832 65.8359C117.199 65.4688 117.793 65.4688 118.156 65.8359C118.52 66.2031 118.523 66.7969 118.156 67.1602L116.32 68.9961L118.156 70.832C118.523 71.1992 118.523 71.793 118.156 72.1562C117.789 72.5195 117.195 72.5234 116.832 72.1562L114.996 70.3203L113.16 72.1562C112.793 72.5234 112.199 72.5234 111.836 72.1562C111.473 71.7891 111.469 71.1953 111.836 70.832L113.672 68.9961L111.836 67.1602C111.469 66.793 111.469 66.1992 111.836 65.8359V65.8359Z" fill="#4416FF"/>
</g>
<g clip-path="url(#clip2_101_11)">
<path d="M26 203C31.5234 203 36 198.523 36 193C36 187.477 31.5234 183 26 183C20.4766 183 16 187.477 16 193C16 198.523 20.4766 203 26 203ZM22.8359 189.836C23.2031 189.469 23.7969 189.469 24.1602 189.836L25.9961 191.672L27.832 189.836C28.1992 189.469 28.793 189.469 29.1562 189.836C29.5195 190.203 29.5234 190.797 29.1562 191.16L27.3203 192.996L29.1562 194.832C29.5234 195.199 29.5234 195.793 29.1562 196.156C28.7891 196.52 28.1953 196.523 27.832 196.156L25.9961 194.32L24.1602 196.156C23.793 196.523 23.1992 196.523 22.8359 196.156C22.4727 195.789 22.4688 195.195 22.8359 194.832L24.6719 192.996L22.8359 191.16C22.4688 190.793 22.4688 190.199 22.8359 189.836V189.836Z" fill="#FF9900"/>
</g>
<g clip-path="url(#clip3_101_11)">
<path d="M120 294C131.047 294 140 285.047 140 274C140 262.953 131.047 254 120 254C108.953 254 100 262.953 100 274C100 285.047 108.953 294 120 294ZM113.672 267.672C114.406 266.938 115.594 266.938 116.32 267.672L119.992 271.344L123.664 267.672C124.398 266.938 125.586 266.938 126.312 267.672C127.039 268.406 127.047 269.594 126.312 270.32L122.641 273.992L126.312 277.664C127.047 278.398 127.047 279.586 126.312 280.312C125.578 281.039 124.391 281.047 123.664 280.312L119.992 276.641L116.32 280.312C115.586 281.047 114.398 281.047 113.672 280.312C112.945 279.578 112.938 278.391 113.672 277.664L117.344 273.992L113.672 270.32C112.938 269.586 112.938 268.398 113.672 267.672V267.672Z" fill="#30DC80"/>
</g>
<g clip-path="url(#clip4_101_11)">
<path d="M250.266 50.7656C251.242 49.7891 251.242 48.2031 250.266 47.2266C249.289 46.25 247.703 46.25 246.727 47.2266L238.5 55.4609L230.266 47.2344C229.289 46.2578 227.703 46.2578 226.727 47.2344C225.75 48.2109 225.75 49.7969 226.727 50.7734L234.961 59L226.734 67.2344C225.758 68.2109 225.758 69.7969 226.734 70.7734C227.711 71.75 229.297 71.75 230.273 70.7734L238.5 62.5391L246.734 70.7656C247.711 71.7422 249.297 71.7422 250.273 70.7656C251.25 69.7891 251.25 68.2031 250.273 67.2266L242.039 59L250.266 50.7656Z" fill="#ADFF00"/>
</g>
<g clip-path="url(#clip5_101_11)">
<path d="M134.797 104.297C137.727 101.367 137.727 96.6094 134.797 93.6797C131.867 90.75 127.109 90.75 124.18 93.6797L99.5 118.383L74.7969 93.7031C71.8672 90.7734 67.1094 90.7734 64.1797 93.7031C61.25 96.6328 61.25 101.391 64.1797 104.32L88.8828 129L64.2031 153.703C61.2734 156.633 61.2734 161.391 64.2031 164.32C67.1328 167.25 71.8906 167.25 74.8203 164.32L99.5 139.617L124.203 164.297C127.133 167.227 131.891 167.227 134.82 164.297C137.75 161.367 137.75 156.609 134.82 153.68L110.117 129L134.797 104.297Z" fill="#FF1686"/>
</g>
<g clip-path="url(#clip6_101_11)">
<path d="M257.133 289.883C257.621 289.395 257.621 288.602 257.133 288.113C256.645 287.625 255.852 287.625 255.363 288.113L251.25 292.23L247.133 288.117C246.645 287.629 245.852 287.629 245.363 288.117C244.875 288.605 244.875 289.398 245.363 289.887L249.48 294L245.367 298.117C244.879 298.605 244.879 299.398 245.367 299.887C245.855 300.375 246.648 300.375 247.137 299.887L251.25 295.77L255.367 299.883C255.855 300.371 256.648 300.371 257.137 299.883C257.625 299.395 257.625 298.602 257.137 298.113L253.02 294L257.133 289.883Z" fill="#0071F2"/>
</g>
<circle cx="98.9165" cy="127.458" r="21" fill="#202020"/>
<circle cx="202.208" cy="127.458" r="21" fill="#202020"/>
<path d="M75.125 251.625C101.646 173.458 200.75 173.458 225.875 251.625" stroke="#202020" stroke-width="20" stroke-linecap="round"/>
</g>
<defs>
<clipPath id="clip0_101_11">
<rect width="300" height="320" fill="white"/>
</clipPath>
<clipPath id="clip1_101_11">
<rect width="20" height="20" fill="white" transform="translate(105 59)"/>
</clipPath>
<clipPath id="clip2_101_11">
<rect width="20" height="20" fill="white" transform="translate(16 183)"/>
</clipPath>
<clipPath id="clip3_101_11">
<rect width="40" height="40" fill="white" transform="translate(100 254)"/>
</clipPath>
<clipPath id="clip4_101_11">
<rect width="25" height="40" fill="white" transform="translate(226 39)"/>
</clipPath>
<clipPath id="clip5_101_11">
<rect width="75" height="120" fill="white" transform="translate(62 69)"/>
</clipPath>
<clipPath id="clip6_101_11">
<rect width="12.5" height="20" fill="white" transform="translate(245 284)"/>
</clipPath>
</defs>
</svg>
