<svg width="31" height="32" viewBox="0 0 31 32" fill="none" xmlns="http://www.w3.org/2000/svg">
<rect width="31" height="32" rx="4" fill="#FAFAFA"/>
<path fill-rule="evenodd" clip-rule="evenodd" d="M13.04 2L10.04 5L12.04 7L5.54 13.5L12.04 20L5.54 26.5L8.54 29.5L15.04 23L21.54 29.5L24.54 26.5L18.04 20L24.54 13.5L18.04 7L20.04 5L17.04 2L15.04 4L13.04 2ZM11.54 13.5L15.04 10L18.54 13.5L15.04 17L11.54 13.5Z" fill="#151515" stroke="#0BDFFC"/>
<path fill-rule="evenodd" clip-rule="evenodd" d="M4.98558 17C3.33272 17.008 2 18.3471 2 20C2 21.6608 3.3536 23.008 5.01442 23C6.66728 22.992 8 21.6529 8 20C8 18.3392 6.6464 16.9921 4.98558 17ZM2.80769 20C2.80769 18.83 3.84443 17.7933 5.01442 17.7933C6.18442 17.7933 7.22115 18.83 7.22115 20C7.22115 21.17 6.18442 22.2067 5.01442 22.2067C3.84443 22.2067 2.80769 21.17 2.80769 20Z" stroke="#FF006B"/>
<path fill-rule="evenodd" clip-rule="evenodd" d="M24.9856 17C23.3327 17.008 22 18.3471 22 20C22 21.6608 23.3536 23.0079 25.0144 23C26.6673 22.992 28 21.6529 28 20C28 18.3392 26.6464 16.9921 24.9856 17ZM22.8077 20C22.8077 18.83 23.8444 17.7933 25.0144 17.7933C26.1844 17.7933 27.2212 18.83 27.2212 20C27.2212 21.17 26.1844 22.2067 25.0144 22.2067C23.8444 22.2067 22.8077 21.17 22.8077 20Z" stroke="#FF006B"/>
</svg>
