<svg viewBox="0 0 2376 1339" fill="none" xmlns="http://www.w3.org/2000/svg">
<path d="M1734.78 1000.37C1680.23 1000.37 1635.85 955.949 1635.85 901.381C1635.85 846.813 1680.23 802.426 1734.78 802.426C1789.34 802.426 1833.72 846.804 1833.72 901.381C1833.72 955.958 1789.34 1000.37 1734.78 1000.37ZM641.22 1000.37C586.666 1000.37 542.289 955.949 542.289 901.381C542.289 846.813 586.657 802.426 641.22 802.426C695.774 802.426 740.15 846.804 740.15 901.381C740.15 955.958 695.783 1000.37 641.22 1000.37ZM1770.27 404.249L1968 61.6999C1973.44 52.2464 1974.91 41.0192 1972.09 30.4818C1969.27 19.9444 1962.38 10.9575 1952.94 5.49295C1943.49 0.0510827 1932.27 -1.41936 1921.73 1.40412C1911.2 4.2276 1902.21 11.1145 1896.75 20.5545L1696.54 367.433C1543.43 297.55 1371.48 258.614 1188 258.614C1004.52 258.614 832.571 297.55 679.466 367.433L479.251 20.5545C473.786 11.1145 464.802 4.2276 454.267 1.40412C443.733 -1.41936 432.51 0.0510827 423.058 5.49295C413.613 10.9524 406.722 19.9394 403.898 30.4789C401.075 41.0184 402.55 52.2481 408 61.6999L605.735 404.249C266.196 588.964 33.9729 932.79 0 1339H2376C2342 932.799 2109.78 588.964 1770.27 404.24" fill="#3DDB85"/>
</svg>
