<svg viewBox="0 0 2261 2500" fill="none" xmlns="http://www.w3.org/2000/svg">
<g clip-path="url(#clip0_16_5)">
<path d="M2133.53 1230.9C2133.53 1102.41 2029.31 998.237 1900.75 998.237C1892.48 998.237 1884.33 998.679 1876.28 999.53L2196 57H837.302L1156.58 998.706C1151.87 998.409 1147.15 998.256 1142.43 998.245C1013.87 998.245 909.651 1102.4 909.651 1230.91C909.651 1334.77 977.756 1422.71 1071.74 1452.63C1022.11 1538.57 959.636 1615.99 888.713 1682.88C792.271 1773.81 681.899 1842.77 562.525 1885.25C420.395 1812.27 353.283 1649.97 413.838 1507.67C420.679 1491.6 427.661 1475.31 434.334 1459.09C537.298 1435.08 614.033 1342.82 614.033 1232.58C614.033 1104.07 509.811 999.911 381.248 999.911C252.685 999.911 148.471 1104.07 148.471 1232.58C148.471 1311.37 187.69 1380.98 247.652 1423.07C190.038 1554.18 105.345 1691.41 78.9576 1850.45C47.3329 2041.04 78.8512 2243.36 243.78 2357.62C627.883 2623.72 1044.82 2192.67 1484.43 2084.31C1643.75 2045.05 1818.64 2051.37 1959.01 1970.12C2064.42 1909.09 2133.91 1807.96 2153.63 1694.43C2173.12 1582.26 2144.71 1470.59 2079.39 1380.04C2114.44 1338.25 2133.61 1285.43 2133.53 1230.9" fill="#99425B"/>
<path d="M2086.35 1684.75C2069.23 1783.34 2008.33 1869.45 1919.28 1921.03C1836.26 1969.1 1736.78 1983.45 1631.44 1998.63C1575.02 2006.77 1516.67 2015.19 1459.67 2029.24C1308.96 2066.4 1162.98 2138.9 1021.81 2209.01C739.294 2349.32 495.312 2470.48 265.256 2311.05C96.736 2194.28 104.514 1978.22 124.146 1859.82C142.343 1750.13 191.538 1649.1 239.104 1551.41C247.207 1534.8 255.245 1518.17 263.218 1501.5C287.195 1511.09 312.354 1517.4 338.017 1520.26C289.592 1680.05 365.746 1853.79 525.575 1935.88L547.457 1947.13L570.615 1938.88C696.974 1893.88 813.411 1821.69 916.682 1724.26C983.437 1661.29 1040.84 1591.62 1088.01 1517.18C1102.35 1519.34 1116.84 1520.43 1131.34 1520.43C1278.04 1520.43 1399.52 1410.78 1418.32 1269.16C1478.37 1266.96 1542.14 1266.95 1602.54 1269.14C1621.32 1410.78 1742.81 1520.44 1889.51 1520.44C1950.85 1520.44 2007.75 1501.22 2054.62 1468.57C2087.16 1535.17 2099.31 1610.11 2086.35 1684.75V1684.75ZM370.317 1056.7C467.308 1056.7 546.208 1135.6 546.208 1232.58C546.208 1267.41 535.985 1299.89 518.434 1327.24C489.199 1372.83 439.499 1404.08 382.401 1407.98C378.406 1408.25 374.375 1408.44 370.317 1408.44C348.701 1408.44 327.997 1404.5 308.852 1397.34C270.295 1382.85 238.007 1355.35 217.558 1319.6C202.373 1293.11 194.395 1263.11 194.418 1232.58C194.418 1135.6 273.327 1056.7 370.317 1056.7V1056.7ZM955.459 1230.9C955.459 1142.79 1020.6 1069.64 1105.24 1056.99C1113.76 1055.7 1122.48 1055.04 1131.35 1055.04C1187.74 1055.04 1237.94 1081.74 1270.14 1123.13C1278.2 1133.45 1285.09 1144.63 1290.67 1156.48C1301.61 1179.76 1307.26 1205.18 1307.24 1230.9C1307.24 1244.96 1305.54 1258.63 1302.41 1271.74C1285.27 1343.49 1224.08 1398.33 1149.09 1405.88C1143.27 1406.47 1137.35 1406.77 1131.35 1406.77C1097.52 1406.79 1064.4 1397.01 1036.02 1378.59C987.6 1347.22 955.459 1292.76 955.459 1230.9V1230.9ZM1689.58 1021.77C1651.3 1058.3 1623.75 1104.61 1609.92 1155.67C1543.63 1153.23 1477.26 1153.23 1410.96 1155.67C1396.08 1100.47 1365.23 1051.77 1323.73 1014.78L1505.74 646.804L1689.58 1021.77ZM905.555 113.682H2105.42L1822.02 949.381C1809.83 952.3 1797.84 956.014 1786.13 960.497L1506.18 389.491L1225.43 957.087C1213.2 952.887 1200.69 949.516 1188 946.998L905.555 113.682ZM2065.4 1230.91C2065.4 1248.54 2062.77 1265.56 2057.93 1281.64C2046.43 1319.49 2022.55 1352.38 1990.13 1375.05C1960.65 1395.73 1925.52 1406.81 1889.51 1406.78C1808.3 1406.78 1739.79 1351.44 1719.65 1276.5C1715.65 1261.64 1713.62 1246.31 1713.62 1230.91C1713.62 1206.87 1718.48 1183.95 1727.25 1163.06C1731.77 1152.37 1737.35 1142.16 1743.88 1132.57C1775.54 1085.85 1828.95 1055.05 1889.51 1055.05C1895.07 1055.05 1900.54 1055.33 1905.97 1055.84C1995.27 1064.16 2065.41 1139.48 2065.41 1230.91H2065.4ZM2179.09 1230.91C2179.09 1089.56 2077.23 971.614 1943.07 946.422L2264 0H746.993L1068.42 948.335C938.919 977.15 841.778 1092.86 841.778 1230.9C841.778 1334.56 896.563 1425.6 978.67 1476.76C939.176 1535.6 892.346 1590.96 838.677 1641.59C753.558 1721.87 658.738 1782.76 556.511 1822.82C453.541 1758.15 410.015 1636.19 455.215 1529.94L458.759 1521.62L465.403 1505.99C578.5 1466.55 659.889 1358.93 659.889 1232.58C659.889 1072.92 529.987 943.038 370.317 943.038C210.648 943.038 80.7274 1072.92 80.7274 1232.58C80.7274 1313.16 113.861 1386.13 167.176 1438.67C157.232 1459.74 147.138 1480.73 136.895 1501.65C88.1426 1601.76 32.8966 1715.22 11.9977 1841.22C-29.4989 2091.46 37.4413 2291.49 200.495 2404.48C299.435 2473.04 399.916 2500 501.026 2500C691.41 2500 884.01 2404.36 1072.38 2310.8C1208.04 2243.44 1348.33 2173.77 1486.9 2139.6C1538.46 2126.89 1591.51 2119.23 1647.67 2111.14C1759.06 2095.07 1874.23 2078.46 1976.25 2019.39C2094.51 1950.9 2175.46 1836.01 2198.35 1704.21C2218 1591.05 2194.36 1477.71 2136.68 1381.58C2164.47 1336.24 2179.15 1284.08 2179.09 1230.9V1230.91Z" fill="white"/>
</g>
<defs>
<clipPath id="clip0_16_5">
<rect width="2261" height="2500" fill="white"/>
</clipPath>
</defs>
</svg>
