<svg width="28" height="30" viewBox="0 0 28 30" fill="none" xmlns="http://www.w3.org/2000/svg">
<path fill-rule="evenodd" clip-rule="evenodd" d="M12.04 1L9.04 4L11.04 6L4.54 12.5L11.04 19L4.54 25.5L7.54 28.5L14.04 22L20.54 28.5L23.54 25.5L17.04 19L23.54 12.5L17.04 6L19.04 4L16.04 1L14.04 3L12.04 1ZM10.54 12.5L14.04 9L17.54 12.5L14.04 16L10.54 12.5Z" fill="#151515" stroke="#0BDFFC"/>
<path fill-rule="evenodd" clip-rule="evenodd" d="M3.98558 16C2.33272 16.008 1 17.3471 1 19C1 20.6608 2.3536 22.008 4.01442 22C5.66728 21.992 7 20.6529 7 19C7 17.3392 5.6464 15.9921 3.98558 16ZM1.80769 19C1.80769 17.83 2.84443 16.7933 4.01442 16.7933C5.18442 16.7933 6.22115 17.83 6.22115 19C6.22115 20.17 5.18442 21.2067 4.01442 21.2067C2.84443 21.2067 1.80769 20.17 1.80769 19Z" stroke="#FF006B"/>
<path fill-rule="evenodd" clip-rule="evenodd" d="M23.9856 16C22.3327 16.008 21 17.3471 21 19C21 20.6608 22.3536 22.0079 24.0144 22C25.6673 21.992 27 20.6529 27 19C27 17.3392 25.6464 15.9921 23.9856 16ZM21.8077 19C21.8077 17.83 22.8444 16.7933 24.0144 16.7933C25.1844 16.7933 26.2212 17.83 26.2212 19C26.2212 20.17 25.1844 21.2067 24.0144 21.2067C22.8444 21.2067 21.8077 20.17 21.8077 19Z" stroke="#FF006B"/>
</svg>
