<svg width="331" height="240" viewBox="0 0 331 240" fill="none" xmlns="http://www.w3.org/2000/svg">
<path d="M248.125 145.825C249.9 144.25 250.6 141.775 249.675 139.575C249.1 138.25 248.475 136.95 247.775 135.7L247 134.35C246.25 133.1 245.425 131.875 244.55 130.7C243.125 128.8 240.625 128.175 238.375 128.925L231.325 131.25C228.65 129.05 225.575 127.25 222.275 126.025L220.75 118.775C220.275 116.45 218.475 114.6 216.125 114.325C214.425 114.1 212.725 114 211 114C209.275 114 207.575 114.1 205.9 114.3C203.55 114.575 201.75 116.45 201.275 118.75L199.75 126.025C196.425 127.275 193.375 129.05 190.7 131.25L183.625 128.95C181.375 128.2 178.875 128.825 177.45 130.725C176.575 131.9 175.75 133.125 174.975 134.375L174.225 135.7C173.525 136.95 172.9 138.25 172.325 139.6C171.4 141.775 172.1 144.25 173.875 145.85L179.425 150.8C179.15 152.475 179 154.225 179 156C179 157.775 179.15 159.525 179.425 161.225L173.875 166.175C172.1 167.75 171.4 170.225 172.325 172.425C172.9 173.75 173.525 175.05 174.225 176.325L174.975 177.625C175.725 178.9 176.55 180.1 177.45 181.275C178.875 183.175 181.375 183.8 183.625 183.05L190.675 180.725C193.35 182.925 196.425 184.725 199.725 185.95L201.25 193.225C201.725 195.55 203.525 197.4 205.875 197.675C207.55 197.875 209.25 197.975 210.975 197.975C212.7 197.975 214.4 197.875 216.075 197.675C218.425 197.4 220.225 195.525 220.7 193.225L222.225 185.95C225.55 184.7 228.6 182.925 231.275 180.725L238.325 183.05C240.575 183.8 243.075 183.175 244.5 181.275C245.375 180.1 246.2 178.9 246.95 177.625L247.725 176.275C248.425 175.025 249.05 173.725 249.625 172.4C250.55 170.225 249.85 167.75 248.075 166.15L242.525 161.2C242.8 159.5 242.95 157.75 242.95 155.975C242.95 154.2 242.8 152.45 242.525 150.75L248.075 145.8L248.125 145.825ZM223 156C223 162.625 217.625 168 211 168C204.375 168 199 162.625 199 156C199 149.375 204.375 144 211 144C217.625 144 223 149.375 223 156ZM297.175 237.125C298.75 238.9 301.225 239.6 303.425 238.675C304.75 238.1 306.05 237.475 307.3 236.775L308.65 236C309.9 235.25 311.125 234.425 312.3 233.55C314.2 232.125 314.825 229.625 314.075 227.375L311.75 220.325C313.95 217.65 315.75 214.575 316.975 211.275L324.25 209.75C326.575 209.275 328.425 207.475 328.7 205.125C328.9 203.45 329 201.75 329 200.025C329 198.3 328.9 196.6 328.7 194.925C328.425 192.575 326.55 190.775 324.25 190.3L316.975 188.75C315.725 185.425 313.95 182.375 311.75 179.7L314.075 172.65C314.825 170.4 314.2 167.9 312.3 166.475C311.125 165.6 309.9 164.775 308.65 164L307.325 163.25C306.075 162.55 304.775 161.925 303.425 161.35C301.25 160.425 298.775 161.125 297.175 162.9L292.225 168.45C290.525 168.175 288.775 168.025 287 168.025C285.225 168.025 283.475 168.175 281.775 168.45L276.825 162.9C275.25 161.125 272.775 160.425 270.575 161.35C269.25 161.925 267.95 162.55 266.675 163.25L265.375 164C264.1 164.75 262.9 165.575 261.725 166.475C259.825 167.9 259.2 170.4 259.95 172.65L262.275 179.7C260.075 182.375 258.275 185.45 257.05 188.75L249.775 190.25C247.45 190.725 245.6 192.525 245.325 194.875C245.125 196.55 245.025 198.25 245.025 199.975C245.025 201.7 245.125 203.4 245.325 205.075C245.6 207.425 247.475 209.225 249.775 209.7L257.05 211.225C258.3 214.55 260.075 217.6 262.275 220.275L259.95 227.325C259.2 229.575 259.825 232.075 261.725 233.5C262.9 234.375 264.1 235.2 265.375 235.95L266.725 236.725C267.975 237.425 269.275 238.05 270.6 238.625C272.775 239.55 275.25 238.85 276.85 237.075L281.8 231.525C283.5 231.8 285.25 231.95 287.025 231.95C288.8 231.95 290.55 231.8 292.25 231.525L297.2 237.075L297.175 237.125ZM287 212C280.375 212 275 206.625 275 200C275 193.375 280.375 188 287 188C293.625 188 299 193.375 299 200C299 206.625 293.625 212 287 212Z" fill="#00FFB2"/>
<path d="M285.969 128.063C286.969 130.781 286.125 133.812 283.969 135.75L270.438 148.063C270.781 150.656 270.969 153.312 270.969 156C270.969 158.688 270.781 161.344 270.438 163.937L283.969 176.25C286.125 178.187 286.969 181.219 285.969 183.937C284.594 187.656 282.938 191.219 281.031 194.656L279.563 197.187C277.5 200.625 275.188 203.875 272.656 206.938C270.813 209.187 267.75 209.937 265 209.062L247.594 203.531C243.406 206.75 238.781 209.438 233.844 211.469L229.938 229.313C229.313 232.156 227.125 234.406 224.25 234.875C219.938 235.594 215.5 235.969 210.969 235.969C206.438 235.969 202 235.594 197.688 234.875C194.813 234.406 192.625 232.156 192 229.313L188.094 211.469C183.156 209.438 178.531 206.75 174.344 203.531L156.969 209.094C154.219 209.969 151.156 209.188 149.313 206.969C146.781 203.906 144.469 200.656 142.406 197.219L140.938 194.687C139.031 191.25 137.375 187.687 136 183.969C135 181.25 135.844 178.219 138 176.281L151.531 163.969C151.188 161.344 151 158.688 151 156C151 153.312 151.188 150.656 151.531 148.063L138 135.75C135.844 133.812 135 130.781 136 128.063C137.375 124.344 139.031 120.781 140.938 117.344L142.406 114.812C144.469 111.375 146.781 108.125 149.313 105.062C151.156 102.813 154.219 102.062 156.969 102.937L174.375 108.469C178.563 105.25 183.188 102.562 188.125 100.531L192.031 82.6875C192.656 79.8437 194.844 77.5937 197.719 77.125C202.031 76.375 206.469 76 211 76C215.531 76 219.969 76.375 224.281 77.0938C227.156 77.5625 229.344 79.8125 229.969 82.6562L233.875 100.5C238.813 102.531 243.438 105.219 247.625 108.438L265.031 102.906C267.781 102.031 270.844 102.813 272.688 105.031C275.219 108.094 277.531 111.344 279.594 114.781L281.063 117.312C282.969 120.75 284.625 124.313 286 128.031L285.969 128.063ZM211 181C224.813 181 236 169.813 236 156C236 142.187 224.813 131 211 131C197.188 131 186 142.187 186 156C186 169.813 197.188 181 211 181Z" fill="#37B7FF"/>
<mask id="path-3-inside-1_14_193" fill="white">
<path d="M249.875 101.825C248.1 100.25 247.4 97.775 248.325 95.575C248.9 94.25 249.525 92.95 250.225 91.7L251 90.35C251.75 89.1 252.575 87.875 253.45 86.7C254.875 84.8 257.375 84.175 259.625 84.925L266.675 87.25C269.35 85.05 272.425 83.25 275.725 82.025L277.25 74.775C277.725 72.45 279.525 70.6 281.875 70.325C283.575 70.1 285.275 70 287 70C288.725 70 290.425 70.1 292.1 70.3C294.45 70.575 296.25 72.45 296.725 74.75L298.25 82.025C301.575 83.275 304.625 85.05 307.3 87.25L314.375 84.95C316.625 84.2 319.125 84.825 320.55 86.725C321.425 87.9 322.25 89.125 323.025 90.375L323.775 91.7C324.475 92.95 325.1 94.25 325.675 95.6C326.6 97.775 325.9 100.25 324.125 101.85L318.575 106.8C318.85 108.475 319 110.225 319 112C319 113.775 318.85 115.525 318.575 117.225L324.125 122.175C325.9 123.75 326.6 126.225 325.675 128.425C325.1 129.75 324.475 131.05 323.775 132.325L323.025 133.625C322.275 134.9 321.45 136.1 320.55 137.275C319.125 139.175 316.625 139.8 314.375 139.05L307.325 136.725C304.65 138.925 301.575 140.725 298.275 141.95L296.75 149.225C296.275 151.55 294.475 153.4 292.125 153.675C290.45 153.875 288.75 153.975 287.025 153.975C285.3 153.975 283.6 153.875 281.925 153.675C279.575 153.4 277.775 151.525 277.3 149.225L275.775 141.95C272.45 140.7 269.4 138.925 266.725 136.725L259.675 139.05C257.425 139.8 254.925 139.175 253.5 137.275C252.625 136.1 251.8 134.9 251.05 133.625L250.275 132.275C249.575 131.025 248.95 129.725 248.375 128.4C247.45 126.225 248.15 123.75 249.925 122.15L255.475 117.2C255.2 115.5 255.05 113.75 255.05 111.975C255.05 110.2 255.2 108.45 255.475 106.75L249.925 101.8L249.875 101.825ZM275 112C275 118.625 280.375 124 287 124C293.625 124 299 118.625 299 112C299 105.375 293.625 100 287 100C280.375 100 275 105.375 275 112ZM200.825 193.125C199.25 194.9 196.775 195.6 194.575 194.675C193.25 194.1 191.95 193.475 190.7 192.775L189.35 192C188.1 191.25 186.875 190.425 185.7 189.55C183.8 188.125 183.175 185.625 183.925 183.375L186.25 176.325C184.05 173.65 182.25 170.575 181.025 167.275L173.75 165.75C171.425 165.275 169.575 163.475 169.3 161.125C169.1 159.45 169 157.75 169 156.025C169 154.3 169.1 152.6 169.3 150.925C169.575 148.575 171.45 146.775 173.75 146.3L181.025 144.75C182.275 141.425 184.05 138.375 186.25 135.7L183.925 128.65C183.175 126.4 183.8 123.9 185.7 122.475C186.875 121.6 188.1 120.775 189.35 120L190.675 119.25C191.925 118.55 193.225 117.925 194.575 117.35C196.75 116.425 199.225 117.125 200.825 118.9L205.775 124.45C207.475 124.175 209.225 124.025 211 124.025C212.775 124.025 214.525 124.175 216.225 124.45L221.175 118.9C222.75 117.125 225.225 116.425 227.425 117.35C228.75 117.925 230.05 118.55 231.325 119.25L232.625 120C233.9 120.75 235.1 121.575 236.275 122.475C238.175 123.9 238.8 126.4 238.05 128.65L235.725 135.7C237.925 138.375 239.725 141.45 240.95 144.75L248.225 146.25C250.55 146.725 252.4 148.525 252.675 150.875C252.875 152.55 252.975 154.25 252.975 155.975C252.975 157.7 252.875 159.4 252.675 161.075C252.4 163.425 250.525 165.225 248.225 165.7L240.95 167.225C239.7 170.55 237.925 173.6 235.725 176.275L238.05 183.325C238.8 185.575 238.175 188.075 236.275 189.5C235.1 190.375 233.9 191.2 232.625 191.95L231.275 192.725C230.025 193.425 228.725 194.05 227.4 194.625C225.225 195.55 222.75 194.85 221.15 193.075L216.2 187.525C214.5 187.8 212.75 187.95 210.975 187.95C209.2 187.95 207.45 187.8 205.75 187.525L200.8 193.075L200.825 193.125ZM211 168C217.625 168 223 162.625 223 156C223 149.375 217.625 144 211 144C204.375 144 199 149.375 199 156C199 162.625 204.375 168 211 168Z"/>
</mask>
<path d="M249.875 101.825C248.1 100.25 247.4 97.775 248.325 95.575C248.9 94.25 249.525 92.95 250.225 91.7L251 90.35C251.75 89.1 252.575 87.875 253.45 86.7C254.875 84.8 257.375 84.175 259.625 84.925L266.675 87.25C269.35 85.05 272.425 83.25 275.725 82.025L277.25 74.775C277.725 72.45 279.525 70.6 281.875 70.325C283.575 70.1 285.275 70 287 70C288.725 70 290.425 70.1 292.1 70.3C294.45 70.575 296.25 72.45 296.725 74.75L298.25 82.025C301.575 83.275 304.625 85.05 307.3 87.25L314.375 84.95C316.625 84.2 319.125 84.825 320.55 86.725C321.425 87.9 322.25 89.125 323.025 90.375L323.775 91.7C324.475 92.95 325.1 94.25 325.675 95.6C326.6 97.775 325.9 100.25 324.125 101.85L318.575 106.8C318.85 108.475 319 110.225 319 112C319 113.775 318.85 115.525 318.575 117.225L324.125 122.175C325.9 123.75 326.6 126.225 325.675 128.425C325.1 129.75 324.475 131.05 323.775 132.325L323.025 133.625C322.275 134.9 321.45 136.1 320.55 137.275C319.125 139.175 316.625 139.8 314.375 139.05L307.325 136.725C304.65 138.925 301.575 140.725 298.275 141.95L296.75 149.225C296.275 151.55 294.475 153.4 292.125 153.675C290.45 153.875 288.75 153.975 287.025 153.975C285.3 153.975 283.6 153.875 281.925 153.675C279.575 153.4 277.775 151.525 277.3 149.225L275.775 141.95C272.45 140.7 269.4 138.925 266.725 136.725L259.675 139.05C257.425 139.8 254.925 139.175 253.5 137.275C252.625 136.1 251.8 134.9 251.05 133.625L250.275 132.275C249.575 131.025 248.95 129.725 248.375 128.4C247.45 126.225 248.15 123.75 249.925 122.15L255.475 117.2C255.2 115.5 255.05 113.75 255.05 111.975C255.05 110.2 255.2 108.45 255.475 106.75L249.925 101.8L249.875 101.825ZM275 112C275 118.625 280.375 124 287 124C293.625 124 299 118.625 299 112C299 105.375 293.625 100 287 100C280.375 100 275 105.375 275 112ZM200.825 193.125C199.25 194.9 196.775 195.6 194.575 194.675C193.25 194.1 191.95 193.475 190.7 192.775L189.35 192C188.1 191.25 186.875 190.425 185.7 189.55C183.8 188.125 183.175 185.625 183.925 183.375L186.25 176.325C184.05 173.65 182.25 170.575 181.025 167.275L173.75 165.75C171.425 165.275 169.575 163.475 169.3 161.125C169.1 159.45 169 157.75 169 156.025C169 154.3 169.1 152.6 169.3 150.925C169.575 148.575 171.45 146.775 173.75 146.3L181.025 144.75C182.275 141.425 184.05 138.375 186.25 135.7L183.925 128.65C183.175 126.4 183.8 123.9 185.7 122.475C186.875 121.6 188.1 120.775 189.35 120L190.675 119.25C191.925 118.55 193.225 117.925 194.575 117.35C196.75 116.425 199.225 117.125 200.825 118.9L205.775 124.45C207.475 124.175 209.225 124.025 211 124.025C212.775 124.025 214.525 124.175 216.225 124.45L221.175 118.9C222.75 117.125 225.225 116.425 227.425 117.35C228.75 117.925 230.05 118.55 231.325 119.25L232.625 120C233.9 120.75 235.1 121.575 236.275 122.475C238.175 123.9 238.8 126.4 238.05 128.65L235.725 135.7C237.925 138.375 239.725 141.45 240.95 144.75L248.225 146.25C250.55 146.725 252.4 148.525 252.675 150.875C252.875 152.55 252.975 154.25 252.975 155.975C252.975 157.7 252.875 159.4 252.675 161.075C252.4 163.425 250.525 165.225 248.225 165.7L240.95 167.225C239.7 170.55 237.925 173.6 235.725 176.275L238.05 183.325C238.8 185.575 238.175 188.075 236.275 189.5C235.1 190.375 233.9 191.2 232.625 191.95L231.275 192.725C230.025 193.425 228.725 194.05 227.4 194.625C225.225 195.55 222.75 194.85 221.15 193.075L216.2 187.525C214.5 187.8 212.75 187.95 210.975 187.95C209.2 187.95 207.45 187.8 205.75 187.525L200.8 193.075L200.825 193.125ZM211 168C217.625 168 223 162.625 223 156C223 149.375 217.625 144 211 144C204.375 144 199 149.375 199 156C199 162.625 204.375 168 211 168Z" stroke="#4416FF" stroke-width="12" mask="url(#path-3-inside-1_14_193)"/>
<path d="M51.3107 9.56978L53.4433 8.78536C54.5291 8.38599 55.8608 8.68772 56.7747 9.70472L56.7831 9.71404L56.7915 9.7233L69.104 23.2546L70.5128 24.8028L72.588 24.5278C75.0176 24.2058 77.4981 24.0313 80 24.0313C82.5019 24.0313 84.9824 24.2058 87.412 24.5278L89.4872 24.8028L90.896 23.2546L103.209 9.7233L103.217 9.71404L103.225 9.70472C104.138 8.68897 105.468 8.38674 106.553 8.78389C110.057 10.0797 113.423 11.6428 116.683 13.4485L119.155 14.8826C122.405 16.8347 125.483 19.0253 128.389 21.4269L128.396 21.4323L128.402 21.4377C129.257 22.1383 129.681 23.4355 129.251 24.7872L129.25 24.7886L123.719 42.1948L123.086 44.1868L124.36 45.8439C127.368 49.7571 129.876 54.075 131.77 58.6781L132.567 60.6157L134.613 61.0637L152.454 64.9692C152.454 64.9693 152.455 64.9694 152.455 64.9695C153.847 65.2759 154.746 66.2831 154.927 67.3937L154.929 67.4076C155.612 71.5035 155.969 75.721 155.969 80.0313C155.969 84.3415 155.612 88.559 154.929 92.6549L154.927 92.6688C154.746 93.7797 153.846 94.7872 152.454 95.0932L134.613 98.9988L132.567 99.4468L131.77 101.384C129.876 105.987 127.368 110.305 124.36 114.219L123.083 115.88L123.722 117.876L129.282 135.244C129.282 135.245 129.283 135.246 129.283 135.246C129.702 136.566 129.282 137.886 128.416 138.608C125.511 141.008 122.435 143.198 119.186 145.149L116.714 146.583C113.455 148.388 110.089 149.951 106.585 151.247C105.5 151.645 104.17 151.343 103.257 150.327L103.248 150.317L103.24 150.308L90.9273 136.777L89.5211 135.231L87.4494 135.503C84.9834 135.826 82.501 136 80 136C77.4981 136 75.0176 135.825 72.588 135.503L70.5128 135.228L69.104 136.777L56.7915 150.308L56.783 150.317L56.7747 150.327C55.8615 151.343 54.5311 151.645 53.4458 151.247C49.9423 149.951 46.5764 148.388 43.3172 146.583L40.8457 145.149C37.595 143.197 34.5167 141.006 31.6108 138.604L31.6043 138.599L31.5978 138.594C30.7427 137.893 30.3191 136.596 30.7492 135.244L30.7497 135.243L36.2809 117.836L36.9139 115.844L35.6401 114.187C32.6323 110.274 30.1241 105.956 28.2304 101.353L27.4333 99.4156L25.3867 98.9675L7.54613 95.062C7.54534 95.0618 7.54455 95.0616 7.54376 95.0615C6.15278 94.7548 5.25389 93.7478 5.07287 92.6376L5.06947 92.6167L5.06585 92.5959C4.3567 88.5183 4 84.3104 4 80C4 75.6898 4.35668 71.4722 5.03935 67.3763L5.04162 67.3624C5.22264 66.2522 6.12153 65.2451 7.51251 64.9385C7.5133 64.9383 7.51409 64.9382 7.51488 64.938L25.3554 61.0325L27.4021 60.5844L28.1992 58.6468C30.0929 54.0438 32.601 49.7258 35.6089 45.8127L36.8826 44.1556L36.2497 42.1636L30.7184 24.7573L30.718 24.7559C30.2979 23.4359 30.7174 22.1149 31.584 21.392C34.4885 18.9917 37.5653 16.8024 40.8142 14.8512L43.286 13.417C45.8877 11.9759 48.5573 10.6893 51.3107 9.56978ZM109 80C109 63.9784 96.0216 51 80 51C63.9784 51 51 63.9784 51 80C51 96.0216 63.9784 109 80 109C96.0216 109 109 96.0216 109 80Z" stroke="#FF1686" stroke-width="8"/>
</svg>
